<?xml version="1.0" encoding="UTF-8" standalone="no"?>
<!-- Created with Inkscape (http://www.inkscape.org/) -->

<svg
   xmlns:dc="http://purl.org/dc/elements/1.1/"
   xmlns:cc="http://creativecommons.org/ns#"
   xmlns:rdf="http://www.w3.org/1999/02/22-rdf-syntax-ns#"
   xmlns:svg="http://www.w3.org/2000/svg"
   xmlns="http://www.w3.org/2000/svg"
   xmlns:sodipodi="http://sodipodi.sourceforge.net/DTD/sodipodi-0.dtd"
   xmlns:inkscape="http://www.inkscape.org/namespaces/inkscape"
   width="150"
   height="150"
   viewBox="0 0 150 150"
   id="svg5743"
   version="1.1"
   inkscape:version="0.91 r13725"
   sodipodi:docname="css3.svg">
  <defs
     id="defs5745" />
  <sodipodi:namedview
     id="base"
     pagecolor="#ffffff"
     bordercolor="#666666"
     borderopacity="1.0"
     inkscape:pageopacity="0.0"
     inkscape:pageshadow="2"
     inkscape:zoom="1.979899"
     inkscape:cx="27.826906"
     inkscape:cy="29.4086"
     inkscape:document-units="px"
     inkscape:current-layer="layer1"
     showgrid="false"
     showguides="false"
     inkscape:window-width="1920"
     inkscape:window-height="1016"
     inkscape:window-x="-4"
     inkscape:window-y="0"
     inkscape:window-maximized="1">
    <inkscape:grid
       type="xygrid"
       id="grid6527" />
  </sodipodi:namedview>
  <metadata
     id="metadata5748">
    <rdf:RDF>
      <cc:Work
         rdf:about="">
        <dc:format>image/svg+xml</dc:format>
        <dc:type
           rdf:resource="http://purl.org/dc/dcmitype/StillImage" />
        <dc:title></dc:title>
      </cc:Work>
    </rdf:RDF>
  </metadata>
  <g
     inkscape:label="Layer 1"
     inkscape:groupmode="layer"
     id="layer1">
    <path
       style="fill:none"
       d="m 99.910728,150.33166 -22.5,-6.24418 -1.4001,-1.46338 -1.40009,-1.46339 -1.42516,-17.5 c -1.43576,-17.63014 -3.45492,-40.342492 -7.16769,-80.624997 -1.1089,-12.03125 -2.09286,-25.25 -2.18657,-29.375 l -0.17039,-7.4999999 66.176332,-0.323673 66.17632,-0.323672 0.96699,0.966985 0.96698,0.966986 -5.57202,62.4816869 c -3.06461,34.364924 -5.88636,64.836784 -6.27056,67.715234 l -0.69854,5.23355 -5.87275,1.87766 c -3.23001,1.03271 -14.1415,4.16199 -24.24775,6.95395 l -18.375,5.07629 -7.25,-0.10487 -7.25,-0.10501 -22.500002,-6.24416 z"
       id="path6500" />
    <path
       style="fill:none"
       d="m 130.84823,145.85032 -1.5625,-0.52295 0,-7.8376 0,-7.83761 -15.64323,-4.12125 c -8.60378,-2.26669 -16.437332,-4.73976 -17.407882,-5.49573 l -1.76465,-1.37447 -1.06445,-12.08301 c -0.58544,-6.645662 -0.86127,-12.692541 -0.61295,-13.437506 l 0.45149,-1.354481 9.214192,0 9.2142,0 0.76488,4.6875 c 0.42068,2.578125 0.87116,5.507417 1.00106,6.509537 l 0.23618,1.82204 5.48065,1.58678 c 3.01436,0.87274 6.52687,1.91885 7.80558,2.3247 l 2.32493,0.73792 0,-11.959239 0,-11.959238 -18.66006,0 -18.660052,0 -0.83111,-6.651978 c -0.45711,-3.658587 -0.63821,-7.981271 -0.40244,-9.605963 l 0.42866,-2.953987 15.480062,-6.331536 15.48007,-6.331536 -16.73007,-0.625 -16.730062,-0.625 -0.79375,-8.125 c -0.43656,-4.46875 -0.54399,-8.546875 -0.23873,-9.0625 l 0.55502,-0.9375 20.494122,0 20.49411,0 0.36962,-8.4375 0.36961,-8.4375 26.78699,-0.338012 26.78698,-0.338014 1.00119,1.001185 1.00118,1.001183 -1.23967,13.711829 c -0.68182,7.541507 -2.05315,22.993079 -3.0474,34.336829 -0.99425,11.34375 -2.70438,30.75 -3.80028,43.124997 l -1.99257,22.5 -1.49821,1.44182 -1.49821,1.44183 -9.375,2.57467 c -5.15625,1.41608 -14.15625,3.90883 -20,5.53945 l -10.625,2.96478 -1.5625,-0.52294 z"
       id="path6496" />
    <path
       style="fill:none"
       d="m 89.285728,-15.714287 0,-12.5 11.875002,0 11.875,0 0,4.306511 0,4.306511 -5.92626,0.380989 -5.92625,0.380989 -0.4016,2.115831 -0.4016,2.115832 6.01536,0.384168 6.01535,0.384169 0.38437,5.3125001 0.38437,5.3125 -11.94687,0 -11.946872,0 0,-12.5000001 z"
       id="path6488" />
    <path
       style="fill:none"
       d="m 118.91403,-4.0026479 c -0.48306,-0.483069 -0.8783,-2.771432 -0.8783,-5.085253 l 0,-4.2069461 2.57151,-0.951266 2.57152,-0.951265 -2.57152,-2.327189 -2.57151,-2.327189 0,-4.181265 0,-4.181266 11.875,0 11.875,0 0,3.867025 0,3.867024 -2.44104,0.638345 -2.44103,0.638345 2.53452,3.428119 2.53451,3.428117 -0.40598,4.2540131 -0.40598,4.254012 -10.6842,0.357471 -10.68419,0.357473 -0.87831,-0.878305 z"
       id="path6484" />
    <path
       style="fill:none"
       d="m 148.03573,-8.2076589 0,-5.0871881 2.57151,-0.951266 2.57152,-0.951265 -2.57152,-2.327189 -2.57151,-2.327189 0,-4.181265 0,-4.181266 11.875,0 11.875,0 0,4.375 0,4.375 -3.06819,0 -3.06817,0 3.14258,3.14259 3.14259,3.14259 -0.3869,4.6699101 -0.38691,4.66991 -11.5625,0.359407 -11.5625,0.359408 0,-5.087187 z"
       id="path6480" />
    <g
       id="g6534"
       transform="matrix(0.79632868,0,0,0.79632868,93.772065,10.397074)">
      <g
         transform="translate(-156.34521,41.872372)"
         id="g6506">
        <path
           style="fill:#0070ba;fill-opacity:1"
           d="m 187.06908,117.9126 12.2583,-134.476789 -133.110865,0.178572 12.50052,134.607657 53.787375,15.21377 z"
           id="path6498"
           inkscape:connector-curvature="0"
           sodipodi:nodetypes="cccccc" />
        <g
           id="g6502"
           transform="translate(-2.1428571,3.5714286)">
          <path
             sodipodi:nodetypes="ccccc"
             inkscape:connector-curvature="0"
             id="path6494"
             d="m 179.48607,106.4576 9.90097,-115.6807639 -53.92857,0.08929 0.26785,127.6781739 z"
             style="fill:#28a8e0;fill-opacity:1" />
          <path
             sodipodi:nodetypes="ccccccccccccccccccc"
             inkscape:connector-curvature="0"
             id="path6492"
             d="m 168.4931,92.261653 4.04435,-50.483903 -38.49133,0.252538 40.63075,-17.891338 0.93905,-14.8612002 -81.885438,0.06313 -0.026,15.1828352 43.965588,-0.223635 -41.161798,18.4144 0.11992,15.212373 58.222498,-0.3788 -1.20854,22.89948 -18.98524,5.68757 -19.68948,-4.59507 -0.66039,-14.50975 -16.903348,0 2.748878,25.62771 34.24719,9.381067 z"
             style="fill:#ffffff;fill-opacity:1" />
        </g>
      </g>
      <g
         id="g6529">
        <path
           style="fill:#000000"
           d="m -42.904524,6.6249569 -12.678573,0 0,-9.5535712 12.656251,-0.02232 0.02232,-8.0133937 -21.160716,0 0.178571,24.732143 20.982145,0.08929 z"
           id="path6486"
           inkscape:connector-curvature="0"
           sodipodi:nodetypes="ccccccccc" />
        <path
           style="fill:#000000"
           d="m -14.334288,6.2215518 -8.20683,-8.5911814 8.3331,-0.08147 0.12627,-8.5482254 -21.376586,0.06313 0.06313,9.2866154 9.848666,7.7209999 -9.596128,0.1262691 0,8.2325516 20.808378,0.06313 z"
           id="path6482"
           inkscape:connector-curvature="0"
           sodipodi:nodetypes="ccccccccccc" />
        <path
           style="fill:#000000"
           d="m 15.802187,6.1083724 -8.2068303,-8.591181 8.3331003,-0.08147 0.12627,-8.5482254 -21.3765903,0.06313 0.0631,9.2866154 9.84867,7.721 -9.59613,0.126269 0,8.2325516 20.8083803,0.06313 z"
           id="path6482-6"
           inkscape:connector-curvature="0"
           sodipodi:nodetypes="ccccccccccc" />
      </g>
    </g>
  </g>
</svg>
