<?xml version="1.0" encoding="UTF-8" standalone="no"?>
<!-- Created with Inkscape (http://www.inkscape.org/) -->

<svg
   xmlns:dc="http://purl.org/dc/elements/1.1/"
   xmlns:cc="http://creativecommons.org/ns#"
   xmlns:rdf="http://www.w3.org/1999/02/22-rdf-syntax-ns#"
   xmlns:svg="http://www.w3.org/2000/svg"
   xmlns="http://www.w3.org/2000/svg"
   xmlns:sodipodi="http://sodipodi.sourceforge.net/DTD/sodipodi-0.dtd"
   xmlns:inkscape="http://www.inkscape.org/namespaces/inkscape"
   width="150"
   height="150"
   viewBox="0 0 150 150"
   id="svg2"
   version="1.1"
   inkscape:version="0.91 r13725"
   sodipodi:docname="express_js.svg">
  <defs
     id="defs4" />
  <sodipodi:namedview
     id="base"
     pagecolor="#ffffff"
     bordercolor="#666666"
     borderopacity="1.0"
     inkscape:pageopacity="0.0"
     inkscape:pageshadow="2"
     inkscape:zoom="3.959798"
     inkscape:cx="78.045453"
     inkscape:cy="92.359024"
     inkscape:document-units="px"
     inkscape:current-layer="svg2"
     showgrid="false"
     inkscape:window-width="1920"
     inkscape:window-height="1016"
     inkscape:window-x="-4"
     inkscape:window-y="0"
     inkscape:window-maximized="1" />
  <metadata
     id="metadata7">
    <rdf:RDF>
      <cc:Work
         rdf:about="">
        <dc:format>image/svg+xml</dc:format>
        <dc:type
           rdf:resource="http://purl.org/dc/dcmitype/StillImage" />
        <dc:title></dc:title>
      </cc:Work>
    </rdf:RDF>
  </metadata>
  <g
     inkscape:label="Layer 1"
     inkscape:groupmode="layer"
     id="layer1" />
  <g
     id="g4364"
     transform="matrix(0.99876634,0,0,0.99900777,0.06386283,0.07842005)">
    <g
       transform="matrix(0.26087989,0,0,0.26099395,-14.071847,10.157153)"
       id="g4262">
      <path
         inkscape:connector-curvature="0"
         id="path4320"
         d="M 284.86608,535.14229 C 241.51066,525.76621 199.3921,508.59908 164.8455,480.54081 123.00378,448.5725 89.421785,405.56946 69.845133,356.58496 48.719215,309.37379 54.485304,256.8161 54.227165,206.60825 55.954119,181.12172 63.501492,156.01844 73.106974,132.44397 84.873542,106.40926 100.14136,82.455535 118.42806,60.465082 159.29691,13.37764 214.40649,-24.04929 276.4309,-35.118305 c 30.18388,-7.776184 61.81806,-1.704019 92.62689,-3.785873 38.64717,-0.567505 76.8704,11.62717 110.20484,30.2727529 29.68269,14.6899215 54.28943,37.2443111 77.56276,60.3611501 26.69438,30.10718 48.87696,64.624675 61.30717,103.083705 8.59632,28.53575 13.22065,58.02714 10.44436,87.88085 3.02927,44.88115 -2.0767,90.98978 -23.25288,131.27981 -23.59245,49.07232 -61.45618,90.54429 -106.70155,120.56411 -41.02835,26.42956 -89.60034,44.02938 -138.98704,41.25318 -24.92454,0.18741 -49.85129,-0.0684 -74.76937,-0.64909 z"
         style="fill:#343434" />
      <path
         id="path4318"
         d="m 233.71838,301.94971 c 0.74026,-0.89197 1.51226,-6.09509 1.71556,-11.5625 l 0.36964,-9.94078 3.75,0.33439 c 2.0625,0.1839 7.72701,0.41612 12.5878,0.51605 7.50411,0.15425 9.44168,-0.26481 12.83951,-2.77693 5.44732,-4.02739 8.2126,-9.11538 10.06139,-18.5126 1.59017,-8.08272 0.92963,-21.54385 -1.35855,-27.68591 -1.78417,-4.78914 -7.30095,-10.0351 -13.29629,-12.64355 -6.54146,-2.84606 -11.22569,-2.98536 -16.00348,-0.47591 -2.71655,1.42681 -5.7618,1.68726 -12.62186,1.07948 -6.45201,-0.57162 -9.58449,-0.35037 -10.9375,0.77253 -1.61899,1.34364 -1.89602,7.15315 -1.89602,39.75957 0,33.77834 0.23878,38.44988 2.06873,40.47196 2.43294,2.68837 10.68363,3.11916 12.72107,0.6642 z"
         style="fill:#ffffff;fill-opacity:1"
         inkscape:connector-curvature="0" />
      <path
         id="path4316"
         d="m 240.17214,262.31454 c -6.43969,-6.89371 -6.45024,-16.83122 -0.0251,-23.70929 5.4906,-5.87769 11.39538,-4.81491 16.16988,2.9104 3.67049,5.93898 3.34016,12.75345 -0.91765,18.93078 -4.69918,6.81765 -9.99641,7.46754 -15.22706,1.86811 z"
         style="fill:#343434"
         inkscape:connector-curvature="0" />
      <path
         id="path4314"
         d="m 520.04909,299.15293 3.87949,-4.41849 0,-36.69777 c 0,-40.73609 0.56743,-38.21524 -8.60224,-38.21524 -2.55626,0 -5.32276,0.675 -6.14776,1.5 -1.08754,1.08754 -1.5,10.18804 -1.5,33.09619 l 0,31.59617 -3.125,2.04759 c -2.50935,1.64419 -3.125,3.07818 -3.125,7.27881 0,6.70573 1.64398,8.23124 8.87051,8.23124 5.15515,0 6.34325,-0.53842 9.75,-4.4185 z"
         style="fill:#afafaf;fill-opacity:1"
         inkscape:connector-curvature="0" />
      <path
         id="path4312"
         d="m 141.52896,277.87687 c 7.99846,-5.54294 10.87565,-12.15188 6.77272,-15.55701 -2.60038,-2.15813 -14.9334,-1.01008 -17.88966,1.66531 -3.15178,2.85232 -9.21732,2.62033 -13.18987,-0.50447 -3.72431,-2.92953 -4.23883,-5.52907 -1.31634,-6.65053 1.08748,-0.41732 8.84998,-0.75874 17.25,-0.75874 10.21215,0 15.76979,-0.49703 16.77277,-1.5 1.91586,-1.91586 1.94376,-14.33133 0.0447,-19.87598 -2.32641,-6.79221 -7.89173,-12.61403 -14.43319,-15.0984 -12.6967,-4.82205 -26.09978,-1.42188 -33.60041,8.52393 -4.387579,5.81791 -5.339302,11.15017 -4.924601,27.59134 0.225538,8.94161 0.704786,10.90925 3.715151,15.25321 6.26879,9.04586 12.74171,11.57744 27.42057,10.72428 6.74323,-0.39194 9.6282,-1.21419 13.3782,-3.81294 z"
         style="fill:#ffffff;fill-opacity:1"
         inkscape:connector-curvature="0" />
      <path
         id="path4310"
         d="m 115.17858,241.34957 c 0,-0.53454 0.87564,-2.22204 1.94588,-3.75 3.58977,-5.12512 15.55412,-2.8666 15.55412,2.93615 0,1.37755 -2,1.78571 -8.75,1.78571 -4.8125,0 -8.75,-0.43734 -8.75,-0.97186 z"
         style="fill:#343434"
         inkscape:connector-curvature="0" />
      <path
         id="path4308"
         d="m 368.87983,277.98022 c 6.02316,-4.17406 9.94106,-11.06358 8.02682,-14.11498 -2.14777,-3.42367 -13.69637,-3.65706 -18.14677,-0.36673 -4.83908,3.57768 -11.15839,3.35756 -14.79688,-0.51543 -2.40689,-2.56201 -2.63097,-3.41416 -1.31484,-5 1.27375,-1.53478 4.76605,-1.91165 17.71442,-1.91165 18.83395,0 18.64013,0.15135 17.58738,-13.73435 -0.92352,-12.18123 -6.1102,-19.40984 -16.52138,-23.02569 -14.06933,-4.88632 -27.73975,-0.168 -34.62294,11.95005 -2.51866,4.4342 -2.87706,6.76833 -2.87706,18.73738 0,15.699 1.87913,21.06499 9.3805,26.78656 5.8265,4.44408 10.62037,5.53879 21.67622,4.94988 7.36394,-0.39226 10.11476,-1.13567 13.89453,-3.75504 z"
         style="fill:#ffffff;fill-opacity:1"
         inkscape:connector-curvature="0" />
      <path
         id="path4306"
         d="m 342.67858,239.8654 c 0,-3.06335 3.55086,-5.04397 9.04282,-5.04397 4.67246,0 7.20718,1.84639 7.20718,5.25 0,1.9359 -1.13427,2.25 -8.125,2.25 -7.24318,0 -8.125,-0.26656 -8.125,-2.45603 z"
         style="fill:#343434"
         inkscape:connector-curvature="0" />
      <path
         id="path4304"
         d="m 423.89071,281.13462 c 4.00149,-0.77203 6.75085,-2.34778 9.6875,-5.55222 3.8846,-4.23881 4.10037,-4.97612 4.10037,-14.01152 0,-9.39918 -0.0669,-9.59854 -4.61928,-13.76836 -2.5406,-2.3271 -5.90421,-4.23109 -7.4747,-4.23109 -1.57049,0 -4.97619,-0.799 -7.56822,-1.77555 -2.59204,-0.97655 -6.82218,-2.12704 -9.4003,-2.55664 -5.17137,-0.86172 -5.96704,-2.39506 -2.26968,-4.37384 4.0109,-2.14656 8.42859,-1.47216 12.434,1.89817 3.20515,2.69695 4.81976,3.13325 10.40841,2.8125 6.49962,-0.37303 6.62174,-0.45243 7.01529,-4.56044 0.61689,-6.43929 -4.68804,-13.21897 -12.28879,-15.70505 -13.52303,-4.42316 -27.61045,-1.35443 -34.35097,7.48284 -3.15051,4.13053 -3.62815,5.78971 -3.45588,12.0048 0.21445,7.73757 3.91823,14.77321 7.77705,14.77321 1.09274,0 3.09634,0.76069 4.45243,1.69042 1.3561,0.92974 4.84852,2.06015 7.76094,2.51203 6.72745,1.0438 14.0797,4.51848 14.0797,6.65406 0,1.1695 -2.0956,1.64349 -7.26614,1.64349 -6.46526,0 -7.66798,-0.41942 -10.91191,-3.80537 -3.25189,-3.39424 -4.3238,-3.76563 -9.92137,-3.4375 l -6.27558,0.36787 -0.3684,5.62924 c -0.3352,5.12196 0.076,6.06317 4.56338,10.44498 2.71248,2.64867 6.81577,5.26107 9.1184,5.80532 5.68054,1.34266 17.9677,1.37175 24.77375,0.0586 z"
         style="fill:#ffffff;fill-opacity:1"
         inkscape:connector-curvature="0" />
      <path
         sodipodi:nodetypes="sscssssssssssssssssssssscsss"
         inkscape:connector-curvature="0"
         id="path4302"
         d="m 480.60099,281.53038 c 4.27294,-0.58567 7.07679,-1.99622 10.79946,-5.43299 l 5.02813,-4.64193 0,-9.62383 c 0,-8.46685 -0.35733,-9.98116 -2.97224,-12.59608 -1.63473,-1.63472 -5.4316,-3.63338 -8.4375,-4.44146 -3.00589,-0.80809 -6.9583,-2.25751 -8.78313,-3.22095 -1.82482,-0.96344 -4.73195,-1.75171 -6.46026,-1.75171 -4.33769,0 -7.09687,-1.21496 -7.09687,-3.125 0,-0.88414 0.88975,-1.94896 1.97723,-2.36626 3.83847,-1.47297 7.72517,-0.72395 12.27884,2.36626 3.34075,2.26709 6.2635,3.125 10.64638,3.125 10.3499,0 11.44015,-5.0608 3.17135,-14.72103 -2.94555,-3.44119 -5.64698,-4.66662 -7.47244,-5.27897 -3.72636,-1.25 0,0 -3.72636,-1.25 -2.60924,-0.87526 -17.23735,-1.452 -22.91067,1.28905 -11.91666,5.75751 -16.80441,21.15836 -9.47822,29.86504 1.77987,2.11525 4.18596,3.84591 5.34687,3.84591 1.16092,0 3.22029,0.77324 4.57638,1.71832 1.3561,0.94508 4.92864,2.13174 7.93896,2.63704 5.73083,0.96195 13.90168,5.08692 13.90168,7.01811 0,0.61959 -3.26977,1.12653 -7.26614,1.12653 -6.46526,0 -7.66798,-0.41942 -10.91191,-3.80537 -3.25189,-3.39424 -4.3238,-3.76563 -9.92137,-3.4375 l -6.27558,0.36787 0,6.73719 c 0,6.25116 0.33091,7.005 4.58711,10.44984 6.70652,5.42804 17.0561,7.12123 31.4603,5.14692 z"
         style="fill:#ffffff;fill-opacity:1" />
      <path
         id="path4300"
         d="m 578.39446,278.51526 c 2.37365,-1.467 4.87113,-3.70502 5.54993,-4.97338 1.34451,-2.51224 1.7017,-19.79768 0.47515,-22.99401 -1.12976,-2.94412 -15.13819,-8.53804 -28.30346,-11.30232 -4.48698,-0.94211 -4.38845,-3.72692 0.19908,-5.62715 3.99007,-1.65273 7.11643,-0.64102 12.14429,3.92999 2.077,1.88826 4.12043,2.33101 9.375,2.03129 6.45201,-0.36801 6.73366,-0.53233 7.08469,-4.13325 0.5799,-5.9488 -5.80871,-13.6189 -13.416,-16.10713 -19.4551,-6.36343 -36.94956,3.00953 -36.94956,19.7964 0,8.35578 3.43537,12.81306 12.2127,15.84554 3.59551,1.24222 7.45017,2.27694 8.5659,2.29938 3.05241,0.0614 13.5964,4.98527 13.5964,6.3493 0,0.65534 -3.57955,1.19151 -7.95455,1.19151 -6.86627,0 -8.392,-0.43745 -11.15203,-3.19749 -2.6999,-2.6999 -4.13674,-3.13757 -9.23296,-2.8125 l -6.03546,0.38499 -0.3684,5.62924 c -0.3358,5.13105 0.0729,6.0601 4.61757,10.4979 5.98688,5.84602 10.72993,7.0594 24.8884,6.36697 7.78433,-0.3807 11.46915,-1.17646 14.70331,-3.17528 z"
         style="fill:#afafaf;fill-opacity:1"
         inkscape:connector-curvature="0" />
      <path
         id="path4298"
         d="m 177.06898,274.08803 c 5.02138,-7.84969 6.27955,-7.7542 10.64771,0.80811 2.8215,5.53059 4.2477,6.17529 13.66106,6.17529 5.04968,0 7.7368,-0.59294 8.86885,-1.95697 1.84276,-2.22038 0.50779,-5.07236 -7.56802,-16.16803 -2.50193,-3.4375 -5.55833,-7.98136 -6.79198,-10.09747 l -2.24301,-3.84749 7.0466,-9.90251 c 12.63464,-17.75536 12.61264,-19.27753 -0.27865,-19.27753 -9.08484,0 -11.49796,1.28722 -13.2577,7.07202 -0.45124,1.48337 -1.77846,3.06466 -2.9494,3.51399 -2.11036,0.80983 -2.78038,0.19968 -8.18653,-7.45517 -2.1464,-3.0392 -2.83187,-3.21414 -11.25,-2.87111 -8.69488,0.3543 -8.976,0.46632 -9.35255,3.72705 -0.22973,1.98931 0.53575,4.31864 1.875,5.70556 4.45334,4.61185 12.88822,18.03755 12.88822,20.51402 0,1.38779 -1.16425,4.01845 -2.58722,5.84594 -6.44693,8.27964 -12.43298,17.04215 -13.11916,19.20409 -1.34505,4.23789 1.64171,5.99361 10.19602,5.99361 l 7.93354,0 4.46722,-6.9834 z"
         style="fill:#ffffff;fill-opacity:1"
         inkscape:connector-curvature="0" />
      <path
         id="path4296"
         d="m 299.92858,279.57143 c 1.0032,-1.0032 1.5,-6.56525 1.5,-16.79362 0,-8.4115 0.50783,-16.62933 1.12851,-18.26186 0.9839,-2.58783 4.1491,-4.61954 15.12149,-9.70636 2.32436,-1.07757 3.19887,-11.34665 1.27277,-14.94561 -1.57602,-2.94482 -5.54227,-3.21845 -10.02277,-0.69149 -2.28277,1.28746 -5.55853,1.56374 -12.1543,1.0251 -6.39388,-0.52216 -9.58625,-0.27516 -10.9375,0.84628 -1.60668,1.33342 -1.9082,5.99386 -1.9082,29.4935 0,25.26209 0.20752,28.03071 2.1875,29.18394 3.0309,1.76533 11.99455,1.66807 13.8125,-0.14988 z"
         style="fill:#ffffff;fill-opacity:1"
         inkscape:connector-curvature="0" />
      <path
         id="path4294"
         d="m 522.89265,214.00269 c 2.53894,-2.2977 3.06105,-9.14728 0.99195,-13.01344 -1.00139,-1.8711 -2.64079,-2.41782 -7.25,-2.41782 -3.27581,0 -6.63102,0.675 -7.45602,1.5 -1.94477,1.94476 -1.94477,12.55524 0,14.5 2.2143,2.2143 11.04345,1.84815 13.71407,-0.56874 z"
         style="fill:#afafaf;fill-opacity:1"
         inkscape:connector-curvature="0" />
    </g>
  </g>
</svg>
