<?xml version="1.0" encoding="UTF-8" standalone="no"?>
<!-- Created with Inkscape (http://www.inkscape.org/) -->

<svg
   xmlns:dc="http://purl.org/dc/elements/1.1/"
   xmlns:cc="http://creativecommons.org/ns#"
   xmlns:rdf="http://www.w3.org/1999/02/22-rdf-syntax-ns#"
   xmlns:svg="http://www.w3.org/2000/svg"
   xmlns="http://www.w3.org/2000/svg"
   xmlns:sodipodi="http://sodipodi.sourceforge.net/DTD/sodipodi-0.dtd"
   xmlns:inkscape="http://www.inkscape.org/namespaces/inkscape"
   width="317"
   height="317"
   viewBox="0 0 317 317"
   id="svg2"
   version="1.1"
   inkscape:version="0.91 r13725"
   sodipodi:docname="redis.svg">
  <defs
     id="defs4" />
  <sodipodi:namedview
     id="base"
     pagecolor="#ffffff"
     bordercolor="#666666"
     borderopacity="1.0"
     inkscape:pageopacity="0.0"
     inkscape:pageshadow="2"
     inkscape:zoom="1"
     inkscape:cx="447.66574"
     inkscape:cy="25.772677"
     inkscape:document-units="px"
     inkscape:current-layer="layer1"
     showgrid="false"
     inkscape:window-width="1920"
     inkscape:window-height="1016"
     inkscape:window-x="-4"
     inkscape:window-y="0"
     inkscape:window-maximized="1" />
  <metadata
     id="metadata7">
    <rdf:RDF>
      <cc:Work
         rdf:about="">
        <dc:format>image/svg+xml</dc:format>
        <dc:type
           rdf:resource="http://purl.org/dc/dcmitype/StillImage" />
        <dc:title></dc:title>
      </cc:Work>
    </rdf:RDF>
  </metadata>
  <g
     inkscape:label="Layer 1"
     inkscape:groupmode="layer"
     id="layer1">
    <g
       id="g4147">
      <path
         style="fill:#ffffff;fill-opacity:0"
         d="M 0,158.5 0,0 158.5,0 317,0 317,158.5 317,317 158.5,317 0,317 0,158.5 Z m 179.55078,143.32059 c 48.77495,-7.34304 89.67698,-37.18171 111.16546,-81.09696 10.37035,-21.19351 14.78115,-40.40813 14.78115,-64.39062 0,-23.98249 -4.4108,-43.19712 -14.78115,-64.390627 C 269.11204,47.790634 228.44495,18.248865 178.93164,10.738759 169.01183,9.2341376 148.54485,9.2534764 138.37793,10.777078 89.426133,18.112929 48.419262,47.970156 26.902899,91.942383 16.53255,113.13589 12.121751,132.35052 12.121751,156.33301 c 0,23.98249 4.410799,43.19711 14.781148,64.39062 22.658161,46.30568 66.443348,76.59045 118.595151,82.02836 7.30794,0.762 26.24506,0.24404 34.05273,-0.9314 z m -32.50488,-0.035 c -1.02158,-0.13965 -4.36494,-0.56114 -7.42969,-0.93666 C 108.79142,297.07202 78.354048,282.03745 55.729586,259.41299 34.34432,238.02773 20.551797,211.38148 15.03258,180.78906 13.581349,172.74505 13.41032,170.23419 13.387824,156.64258 13.362078,141.08656 14.214138,133.01767 17.081595,121.66306 29.63013,71.973147 65.995549,33.098469 114.62418,17.389914 c 15.03019,-4.855216 26.25254,-6.513225 44.18539,-6.528024 17.8512,-0.01473 29.05555,1.640616 44.18539,6.528024 45.42528,14.673773 80.22152,49.474952 94.74426,94.757706 5.13863,16.02257 6.52351,25.51412 6.49209,44.49496 -0.0225,13.59161 -0.19352,16.10247 -1.64475,24.14648 -11.33674,62.83831 -59.19621,109.79916 -122.10707,119.81434 -5.85854,0.93265 -29.21681,1.75855 -33.43359,1.18214 z m 26.0039,-13.27968 c 24.64893,-2.75431 49.59361,-13.10537 68.70923,-28.51163 14.95603,-12.05382 26.68305,-26.7699 35.58667,-44.65725 17.98741,-36.13665 18.26273,-79.12631 0.73869,-115.345779 C 264.8197,72.575138 244.32799,51.846801 217.1944,38.398093 191.00539,25.417563 161.47131,21.552463 132.49609,27.313701 112.85654,31.218699 91.061358,41.529704 75.261118,54.390791 48.768658,75.955132 31.078548,108.50179 27.255859,142.71191 c -2.012667,18.01183 0.09462,37.53358 6.001634,55.5987 9.206968,28.15721 28.301334,53.07441 53.112624,69.30935 16.389933,10.72453 38.096353,18.61703 57.270503,20.82366 6.61033,0.76075 22.85052,0.79511 29.40918,0.0622 z M 150.45117,233.8221 c -2.21343,-0.78387 -4.58164,-1.72527 -5.26269,-2.092 -0.68106,-0.36674 -15.67669,-6.68573 -33.32363,-14.0422 C 75.041132,202.33721 71.627661,200.8121 68.879395,198.48239 l -2.012208,-1.70575 0,-9.03042 0,-9.03043 1.409214,1.32389 c 2.099184,1.97208 11.566364,6.23969 40.073209,18.0642 14.13188,5.86184 29.4826,12.29829 34.11269,14.30324 14.52528,6.2898 16.83455,6.24252 31.51622,-0.64536 4.93764,-2.31648 21.37583,-9.56909 36.52929,-16.11691 30.08998,-13.00188 35.97314,-15.77469 38.54151,-18.16511 l 1.70263,-1.58467 0,9.00914 0,9.00914 -1.85687,1.73458 c -2.56731,2.39822 -9.13087,5.48427 -40.55426,19.06777 -14.9832,6.47685 -30.54811,13.33281 -34.58867,15.23547 -12.25849,5.7724 -16.12022,6.41394 -23.30098,3.87093 z m 0,-30.37206 c -2.21343,-0.80267 -5.69609,-2.21941 -7.73926,-3.14831 -2.04316,-0.9289 -16.94897,-7.20481 -33.12402,-13.94645 C 74.986771,171.93377 71.5396,170.3914 68.879395,168.14099 l -2.012208,-1.70224 0,-9.03042 0,-9.03043 1.393067,1.27898 c 2.329331,2.13857 8.078949,4.72656 40.975386,18.44362 17.39037,7.25139 33.91223,14.19575 36.71525,15.43191 10.93743,4.82352 14.46634,4.44827 30.50419,-3.24359 4.25659,-2.04149 18.88379,-8.49893 32.50488,-14.34986 28.36936,-12.18605 37.67882,-16.5508 40.08936,-18.79596 l 1.70263,-1.58583 0,8.97754 0,8.97754 -1.70263,1.6119 c -2.40589,2.27767 -14.02024,7.73983 -42.56592,20.01847 -13.6211,5.85898 -28.22992,12.29576 -32.46405,14.30395 -12.59284,5.97262 -16.36914,6.61409 -23.56818,4.00347 z m 2.45582,-30.73447 c -1.20326,-0.28569 -5.80038,-2.09566 -10.21582,-4.02216 -4.41545,-1.9265 -20.28707,-8.60159 -35.27027,-14.83352 -32.161076,-13.37668 -35.884897,-15.0477 -38.541505,-17.29508 l -2.012208,-1.70223 0,-10.3744 c 0,-11.36081 -0.06325,-11.15323 4.024415,-13.20816 3.282349,-1.65009 70.557998,-27.786684 79.559568,-30.908899 6.23162,-2.161451 13.3846,-2.87771 17.75357,-1.777744 1.6432,0.413709 18.8686,6.958496 38.27866,14.543978 19.41006,7.585475 36.6147,14.288645 38.23253,14.895925 1.61784,0.60729 3.63778,1.74944 4.48877,2.5381 1.52677,1.41496 1.54725,1.56592 1.54725,11.39932 l 0,9.96538 -1.70263,1.58195 c -2.95571,2.74622 -7.81106,5.02868 -42.87549,20.15548 -13.45083,5.8027 -27.93872,12.20563 -32.19531,14.22876 -10.89264,5.17719 -15.29925,6.18378 -21.07153,4.8133 z m 16.42595,-39.90991 c 4.80765,-7.02499 5.71954,-8.70196 4.81091,-8.8473 -1.17747,-0.18835 -40.98474,5.81091 -41.41545,6.24163 -0.1369,0.1369 3.16784,1.68317 7.34386,3.43615 4.17603,1.75299 10.79683,4.542 14.7129,6.19781 5.29307,2.23805 7.312,2.83468 7.86792,2.32513 0.4113,-0.377 3.41723,-4.58603 6.67986,-9.35342 z m 43.49665,-13.71763 c 7.57673,-2.96218 13.77588,-5.59061 13.77588,-5.84095 0,-0.25034 -5.61005,-2.65915 -12.46677,-5.35291 l -12.46677,-4.89776 -13.44273,5.30795 c -7.3935,2.91937 -13.55487,5.57929 -13.69192,5.91093 -0.18384,0.44484 22.2357,9.90098 24.20686,10.21001 0.17026,0.0267 6.50872,-2.37507 14.08545,-5.33727 z m -79.84965,3.18931 c 6.62734,-1.5686 11.27983,-4.75953 11.27983,-7.73632 0,-5.82769 -15.74032,-10.52204 -29.25185,-8.72399 -9.40775,1.25194 -14.53218,3.43048 -16.548643,7.03529 -0.846742,1.51371 -0.846742,1.86368 0,3.3774 3.513063,6.28024 20.767013,9.30293 34.520663,6.04762 z m 32.2908,-15.19391 c 0.81764,-2.05851 1.70549,-3.87801 1.973,-4.04334 0.26751,-0.16533 3.6336,-0.61455 7.4802,-0.99826 3.84661,-0.38371 7.21864,-0.89254 7.4934,-1.13074 0.27476,-0.23819 -2.09345,-1.355048 -5.2627,-2.481915 -3.16924,-1.126861 -5.84692,-2.110471 -5.95041,-2.185789 -0.10349,-0.07533 0.50388,-1.840049 1.34969,-3.921612 1.05763,-2.602843 1.29765,-3.784665 0.76865,-3.784665 -0.42305,0 -3.18821,0.817681 -6.1448,1.817073 l -5.37562,1.817072 -5.98745,-2.436213 c -3.2931,-1.339919 -6.224,-2.436213 -6.51311,-2.436213 -0.28912,0 0.32047,1.676187 1.35463,3.724855 l 1.88031,3.724862 -1.71661,0.665539 c -0.94413,0.366048 -3.66689,1.366059 -6.05058,2.222244 -2.3837,0.856185 -4.55859,1.765864 -4.83311,2.021513 -0.492,0.458189 2.3721,0.838099 12.42732,1.648449 l 5.11765,0.41243 2.25751,3.7798 c 2.62397,4.39337 3.29845,5.32765 3.84615,5.32765 0.2196,0 1.06825,-1.68423 1.88588,-3.74274 z"
         id="path4163"
         inkscape:connector-curvature="0" />
      <path
         style="fill:#cdcdcd"
         d="M 145.49805,302.75199 C 111.6761,299.22535 81.575195,285.51979 57.61385,262.73652 37.232847,243.35756 22.262795,217.39276 15.899873,190.38574 c -2.943971,-12.49549 -3.778122,-20.01382 -3.778122,-34.05273 0,-23.98249 4.410799,-43.19712 14.781148,-64.390627 21.516363,-43.972227 62.523234,-73.829454 111.475031,-81.165305 10.16692,-1.5236016 30.6339,-1.5429404 40.55371,-0.03832 49.51331,7.510106 90.1804,37.051875 111.7846,81.203624 10.37035,21.193508 14.78115,40.408138 14.78115,64.390628 0,23.98249 -4.4108,43.19711 -14.78115,64.39062 -21.48848,43.91525 -62.39051,73.75392 -111.16546,81.09696 -7.80767,1.17544 -26.74479,1.6934 -34.05273,0.9314 z"
         id="path4209"
         inkscape:connector-curvature="0" />
      <path
         style="fill:#ffffff;fill-opacity:1"
         d="m 180.47949,300.6034 c 46.98557,-7.47993 86.82563,-36.15163 108.03266,-77.74785 6.99527,-13.72078 11.26037,-26.46858 14.07441,-42.06649 1.45123,-8.04401 1.62226,-10.55487 1.64475,-24.14648 0.0258,-15.55602 -0.82631,-23.62491 -3.69376,-34.97952 -10.4259,-41.284676 -37.87928,-76.002737 -75.10787,-94.982856 -14.8362,-7.563887 -27.87758,-11.771399 -45.56933,-14.701938 -9.54418,-1.58094 -32.42418,-1.574553 -42.10156,0.01175 -17.57717,2.881229 -30.71188,7.115463 -45.569333,14.690186 -37.213698,18.972526 -64.68613,53.714699 -75.107862,94.982858 -2.867457,11.35461 -3.719517,19.4235 -3.693771,34.97952 0.02249,13.59161 0.193525,16.10247 1.644756,24.14648 5.519217,30.59242 19.31174,57.23867 40.697006,78.62393 22.624462,22.62446 53.061834,37.65903 83.886624,41.43589 3.06475,0.37552 6.40811,0.79701 7.42969,0.93666 4.21678,0.57641 27.57505,-0.24949 33.43359,-1.18214 z"
         id="path4207"
         inkscape:connector-curvature="0" />
      <path
         d="m 147.35547,288.16773 c -0.85132,-0.1452 -4.05537,-0.57654 -7.12012,-0.95854 C 119.16247,284.58266 96.226291,274.87666 77.702148,260.74675 72.15671,256.51678 61.109474,245.57558 56.357956,239.60742 41.819797,221.34674 32.844653,201.15746 28.684604,177.3572 c -1.520907,-8.70134 -1.520907,-32.10877 0,-40.8101 2.474684,-14.15804 5.917682,-24.9601 11.84899,-37.17503 16.863757,-34.729182 48.442604,-60.500606 85.709426,-69.947259 12.16662,-3.084079 17.40447,-3.675177 32.56655,-3.675177 15.16209,0 20.39993,0.591098 32.56655,3.675177 18.5593,4.70454 36.98531,14.130024 51.63658,26.413737 24.7251,20.729675 40.21451,47.955042 45.91774,80.708552 1.53929,8.84008 1.55554,31.51813 0.0291,40.58162 -3.97483,23.60096 -13.05796,44.08963 -27.69834,62.4787 -4.7492,5.96524 -15.79484,16.90564 -21.34419,21.14082 -17.96766,13.71264 -37.98778,22.41617 -60.37484,26.24731 -5.57074,0.95334 -28.5609,1.79059 -32.18668,1.17218 z M 166.8584,233.8956 c 2.04316,-0.86797 7.61543,-3.38513 12.38281,-5.59371 4.76738,-2.20859 18.83735,-8.39409 31.2666,-13.74557 28.06235,-12.0824 35.58936,-15.64387 38.54244,-18.2367 l 2.32084,-2.03774 0,-9.84211 c 0,-5.41317 -0.16886,-9.84211 -0.37525,-9.84211 -0.20638,0 -0.9018,0.6694 -1.54536,1.48756 -2.23298,2.83878 -6.00062,4.63487 -43.89579,20.92582 -11.06714,4.75771 -24.99781,10.92492 -30.95703,13.70492 l -10.83496,5.05455 -6.19141,-0.0214 c -6.19105,-0.0214 -6.19187,-0.0216 -14.24024,-3.62074 C 138.9042,210.14872 122.95438,203.39999 107.887,197.1312 74.382694,183.1917 70.366019,181.35153 68.063602,178.88679 l -1.815555,-1.94357 0,10.17338 c 0,9.75822 0.05684,10.22559 1.393066,11.45313 2.396421,2.2015 9.586625,5.45041 42.191927,19.06451 17.40233,7.26621 33.31227,13.96811 35.35544,14.89311 6.36951,2.88368 8.41113,3.36695 13.31152,3.15097 3.2319,-0.14244 5.77287,-0.6844 8.3584,-1.78276 z m -3.71485,-29.02205 c 1.36211,-0.37083 6.51646,-2.56481 11.45411,-4.87553 4.93764,-2.31071 20.12207,-9.00351 33.74316,-14.87289 30.62541,-13.1966 37.75466,-16.54909 40.70943,-19.1434 l 2.32084,-2.03774 0,-9.84211 c 0,-5.41317 -0.16886,-9.84211 -0.37525,-9.84211 -0.20638,0 -0.90275,0.6706 -1.54746,1.49023 -1.78266,2.26628 -10.85541,6.64262 -38.01186,18.33543 -13.62109,5.86487 -29.22343,12.74531 -34.67187,15.28988 -12.14986,5.67431 -14.27714,6.36966 -19.44655,6.35646 -3.20097,-0.008 -5.14869,-0.45422 -9.03392,-2.06886 -36.17027,-15.03187 -70.242612,-29.38568 -73.785589,-31.08397 -2.443011,-1.17103 -5.298797,-2.98611 -6.346191,-4.03351 l -1.904353,-1.90436 0,10.23195 0,10.23193 2.061311,1.57224 c 3.043175,2.32114 10.712842,5.75433 41.278532,18.47757 15.15347,6.30776 30.75581,12.85988 34.67188,14.56025 3.91606,1.70037 7.67734,3.22759 8.35839,3.39381 2.32621,0.56775 8.04532,0.43992 10.52539,-0.23527 z m 0,-31.57617 c 1.36211,-0.37083 6.51646,-2.56824 11.45411,-4.88314 4.93764,-2.3149 20.12207,-9.00427 33.74316,-14.86527 30.41019,-13.08515 37.72953,-16.52703 40.70943,-19.14342 l 2.32084,-2.03773 0,-10.35333 c 0,-9.94807 -0.0545,-10.40299 -1.39306,-11.62216 -0.76619,-0.69787 -1.9503,-1.55197 -2.63135,-1.89801 -2.07398,-1.05378 -69.59488,-27.413069 -75.22559,-29.367089 -7.55092,-2.620402 -12.59801,-2.54486 -21.11857,0.316083 -9.61372,3.227989 -79.694868,30.596916 -82.009005,32.027126 -1.101904,0.68102 -2.17041,1.67328 -2.374467,2.20503 -0.20405,0.53175 -0.371001,5.66628 -0.371001,11.41007 l 0,10.44324 2.012207,1.5101 c 3.689484,2.76886 9.487952,5.33587 50.305176,22.27037 11.91846,4.9448 23.62021,9.88587 26.00391,10.98017 8.12261,3.72888 13.01559,4.52126 18.57421,3.00796 z m -14.70459,-36.92153 c -7.06594,-2.94015 -12.84716,-5.51344 -12.84716,-5.71842 0,-0.37761 37.83767,-6.34645 38.16382,-6.0203 0.35588,0.35588 -11.25042,17.09245 -11.85035,17.08851 -0.34052,-0.002 -6.40036,-2.40964 -13.46631,-5.34979 z m 38.36023,-17.38144 -11.63537,-4.70306 12.87365,-5.12742 c 7.08052,-2.82008 13.20733,-5.13212 13.61515,-5.13787 0.40781,-0.006 5.96928,2.06368 12.35882,4.59871 10.19342,4.04422 11.43056,4.6811 10.09347,5.19613 -0.83812,0.32283 -6.39959,2.53205 -12.35882,4.90937 -5.95922,2.37732 -11.39218,4.46748 -12.07324,4.64481 -0.73,0.19006 -6.01426,-1.60807 -12.87366,-4.38067 z m -71.01989,3.54849 c -8.22353,-0.74292 -15.25698,-3.49733 -16.630993,-6.51296 -2.362975,-5.18616 7.603103,-9.51945 21.893683,-9.51945 8.3601,0 13.83614,1.03643 18.29326,3.4623 3.77735,2.05589 4.83909,4.17272 3.20124,6.38246 -3.43722,4.63738 -14.80883,7.26709 -26.75719,6.18765 z m 44.72049,-16.92482 -2.64376,-4.555 -4.78592,-0.40237 c -2.63226,-0.2213 -6.30022,-0.57067 -8.15102,-0.776369 l -3.36508,-0.374017 5.49873,-1.981299 c 3.0243,-1.089712 5.60779,-2.308466 5.74108,-2.708344 0.1333,-0.399878 -0.49032,-1.977269 -1.38582,-3.505308 -0.89549,-1.528045 -1.50102,-2.778264 -1.34561,-2.778264 0.15541,0 2.86142,0.984131 6.01336,2.186954 l 5.73079,2.186953 5.46685,-1.833486 c 3.00676,-1.008419 5.46684,-1.73703 5.46684,-1.619139 0,0.117884 -0.56595,1.534663 -1.25767,3.148392 -0.69173,1.613728 -1.16479,3.212739 -1.05125,3.553359 0.11354,0.340627 2.54726,1.507998 5.40826,2.594168 l 5.20182,1.97485 -5.53037,0.44873 c -8.78289,0.71264 -8.91904,0.76581 -10.27045,4.0107 -0.65315,1.56829 -1.39219,3.33138 -1.64229,3.91797 -0.35352,0.82915 -1.04313,0.0528 -3.09849,-3.48848 z"
         style="fill:#d62a1e"
         id="path4149"
         inkscape:connector-curvature="0" />
    </g>
  </g>
</svg>
