<?xml version="1.0" encoding="UTF-8" standalone="no"?>
<!-- Created with Inkscape (http://www.inkscape.org/) -->

<svg
   xmlns:dc="http://purl.org/dc/elements/1.1/"
   xmlns:cc="http://creativecommons.org/ns#"
   xmlns:rdf="http://www.w3.org/1999/02/22-rdf-syntax-ns#"
   xmlns:svg="http://www.w3.org/2000/svg"
   xmlns="http://www.w3.org/2000/svg"
   xmlns:sodipodi="http://sodipodi.sourceforge.net/DTD/sodipodi-0.dtd"
   xmlns:inkscape="http://www.inkscape.org/namespaces/inkscape"
   id="svg6385"
   version="1.1"
   inkscape:version="0.91 r13725"
   width="340"
   height="340"
   viewBox="0 0 340 340"
   sodipodi:docname="saifas_large.svg">
  <metadata
     id="metadata6391">
    <rdf:RDF>
      <cc:Work
         rdf:about="">
        <dc:format>image/svg+xml</dc:format>
        <dc:type
           rdf:resource="http://purl.org/dc/dcmitype/StillImage" />
        <dc:title></dc:title>
      </cc:Work>
    </rdf:RDF>
  </metadata>
  <defs
     id="defs6389" />
  <sodipodi:namedview
     pagecolor="#ffffff"
     bordercolor="#666666"
     borderopacity="1"
     objecttolerance="10"
     gridtolerance="10"
     guidetolerance="10"
     inkscape:pageopacity="0"
     inkscape:pageshadow="2"
     inkscape:window-width="1920"
     inkscape:window-height="1016"
     id="namedview6387"
     showgrid="false"
     inkscape:zoom="0.69411765"
     inkscape:cx="-24.491525"
     inkscape:cy="170"
     inkscape:window-x="-4"
     inkscape:window-y="0"
     inkscape:window-maximized="1"
     inkscape:current-layer="svg6385" />
  <path
     inkscape:connector-curvature="0"
     style="fill:#b4b4b4;fill-opacity:1;stroke:none;stroke-opacity:1"
     d="m 214.0975,271.36115 c -23.83489,-16.82972 -43.34502,-30.82368 -43.35583,-31.09769 -0.0194,-0.49014 21.76436,-16.59613 24.77788,-18.31976 1.16521,-0.66648 2.60446,0.31178 5.86363,3.98548 2.37565,2.67781 4.3264,4.42039 4.335,3.87238 0.009,-0.548 -0.76392,-4.00334 -1.7167,-7.67854 l -1.73233,-6.68216 -33.09872,-34.91902 c -18.2043,-19.20545 -33.25586,-35.38611 -33.44791,-35.95701 -0.44287,-1.31647 35.02539,-106.564829 35.91192,-106.564829 0.60722,0 32.22982,97.215779 32.16716,98.889899 -0.0153,0.411 -5.84013,0.74728 -12.9439,0.74728 l -12.91592,0 -2.88119,-5.47767 c -1.58465,-3.01273 -3.15802,-5.47875 -3.49638,-5.48005 -0.33835,-9.9e-4 -1.19145,2.6952 -1.89578,5.99222 -1.17683,5.50887 -1.12698,6.16599 0.61519,8.10991 1.04268,1.16342 13.89056,15.08913 28.55083,30.94602 l 26.65507,28.83071 14.37067,43.5164 c 17.83208,53.99802 19.08436,57.97311 18.24808,57.92486 -0.37102,-0.0214 -20.17587,-13.80869 -44.01077,-30.63843 z"
     id="path6966" />
  <path
     inkscape:connector-curvature="0"
     id="path6935"
     style="fill:#ffffff;fill-opacity:1;stroke:none;stroke-opacity:1"
     d="m 266.67015,167.40019 c 18.64069,-14.31859 34.32095,-26.42451 34.84501,-26.90204 0.54276,-0.49456 -18.38895,-0.86823 -43.98819,-0.86823 -42.40759,0 -44.90029,0.0983 -44.21844,1.74365 2.23367,5.38989 2.74068,5.15003 -11.52132,5.45038 l -13.23767,0.27876 21.33394,23.16564 c 11.73367,12.74111 21.68507,23.16564 22.11423,23.16564 0.42915,0 16.03175,-11.7152 34.67244,-26.0338 z M 161.1465,245.07944 c 0.66456,-0.64882 0.0723,-1.7232 -1.75524,-3.18412 -1.51702,-1.21269 -2.75822,-2.47398 -2.75822,-2.80285 0,-0.32887 7.4529,-5.83874 16.56201,-12.24414 l 16.56202,-11.64619 -3.27238,-3.75514 c -1.79981,-2.06532 -17.94113,-19.06798 -35.8696,-37.78369 l -32.59723,-34.02856 -39.999228,-0.002 -39.999231,-0.002 11.47676,8.71825 c 6.312227,4.79504 24.672187,18.53881 40.799919,30.54172 22.16875,16.49888 29.17239,22.21172 28.7052,23.41474 -1.86111,4.79158 -32.57765,95.17199 -32.57765,95.8557 0,0.70836 72.05907,-50.48106 74.72287,-53.08173 z" />
</svg>
